# File generated by ImageToStl.com - Free Image and 3D model conversion tools

mtllib wire_fence.mtl

o obj1
v -0.07951036 1.4440405 -2.54119257
v -0.05842461 1.4440405 -2.13652476
v -0.0584245 0.03472792 -2.13652476
v -0.07951024 0.03472792 -2.54119257
v -0.03398336 0.03472792 -2.84539056
v -0.03398347 1.4440405 -2.84539056
v -0.05287789 0.03472792 -3.08652489
v -0.05287799 1.4440405 -3.08652489
v -0.07509859 0.03472792 -3.43267357
v -0.0750987 1.4440405 -3.43267357
v -0.07546197 0.03472792 -3.77882224
v -0.07546207 1.4440405 -3.77882224
v -0.05842522 1.4440405 -4.03652518
v -0.05842511 0.03472792 -4.03652518
v -0.03733923 1.4440405 -1.81265972
v -0.03733913 0.03472792 -1.81265972
v -0.05842481 0.03472792 -2.02255763
v -0.05842491 1.4440405 -2.02255763
v -0.08286629 1.4440405 -1.31369214
v -0.08286617 0.03472792 -1.31369214
v -0.06397183 1.4440405 -1.07255758
v -0.06397173 0.03472792 -1.07255758
v -0.04175124 1.4440405 -0.72640875
v -0.04175113 0.03472792 -0.72640875
v -0.04138798 1.4440405 -0.38025985
v -0.04138787 0.03472792 -0.38025985
v -0.05842491 1.4440405 -0.12255765
v -0.05842481 0.03472792 -0.12255765
vn 0.99884 0 0.04823
vn 0.99865 0 -0.05204
vn 0.99938 0 0.03517
vn 0.99747 0 -0.07109
vn 0.99947 0 -0.03257
vn 0.99947 0 0.03248
vn 0.99782 0 0.06597
vn 0.99999 0 -0.00457
vn 0.99499 0 -0.09995
vn 0.99998 0 0.0064
vn 0.99747 0 -0.07109
vn 0.99947 0 -0.03257
vn 0.99947 0 0.03248
vn 0.99782 0 0.06597
vt 0.14869 0.50223
vt 0.00781 0.50223
vt 0.00781 0.99219
vt 0.14869 0.99219
vt 0.25563 0.99219
vt 0.25563 0.50223
vt 0.33972 0.99219
vt 0.33972 0.50223
vt 0.46031 0.99219
vt 0.46031 0.50223
vt 0.58065 0.99219
vt 0.58065 0.50223
vt 0.67044 0.50223
vt 0.67044 0.99219
vt 0.59681 0.00781
vt 0.59681 0.49777
vt 0.67016 0.49777
vt 0.67016 0.00781
vt 0.42262 0.00781
vt 0.42262 0.49777
vt 0.33853 0.00781
vt 0.33853 0.49777
vt 0.21794 0.00781
vt 0.21794 0.49777
vt 0.0976 0.00781
vt 0.0976 0.49777
vt 0.00781 0.00781
vt 0.00781 0.49777
usemtl mat0
f 1/1/1 2/2/2 3/3/2
f 1/1/1 3/3/2 4/4/1
f 4/4/1 5/5/3 6/6/3
f 4/4/1 6/6/3 1/1/1
f 5/5/3 7/7/4 8/8/4
f 5/5/3 8/8/4 6/6/3
f 7/7/4 9/9/5 10/10/5
f 7/7/4 10/10/5 8/8/4
f 9/9/5 11/11/6 12/12/6
f 9/9/5 12/12/6 10/10/5
f 13/13/7 12/12/6 11/11/6
f 13/13/7 11/11/6 14/14/7
f 15/15/8 16/16/8 17/17/9
f 15/15/8 17/17/9 18/18/9
f 16/16/8 15/15/8 19/19/10
f 16/16/8 19/19/10 20/20/10
f 20/20/10 19/19/10 21/21/11
f 20/20/10 21/21/11 22/22/11
f 22/22/11 21/21/11 23/23/12
f 22/22/11 23/23/12 24/24/12
f 24/24/12 23/23/12 25/25/13
f 24/24/12 25/25/13 26/26/13
f 27/27/14 28/28/14 26/26/13
f 27/27/14 26/26/13 25/25/13
# Vertices: 28, normals: 14, texture coordinates: 28, faces: 24

o obj2
v -0.11847689 1.60103466 -0.017094
v -0.11888111 1.61499996 -0.03315155
v -0.13479273 1.60103634 -0.03147094
v -0.13479272 1.60103634 -0.13480461
v -0.11888109 1.61499996 -0.13533234
v -0.11834912 1.60103634 -0.15124403
v -0.00907017 1.60106213 -0.04525649
v -0.02679941 1.61499996 -0.04479557
v -0.02724833 1.60107311 -0.02685877
v -0.01502593 1.60103634 -0.15124403
v -0.01647233 1.61499996 -0.13533234
v -0.00044273 1.60103482 -0.13490857
v -0.00844368 1.60103466 -2.13402232
v -0.00803947 1.61499996 -2.11796443
v 0.00787215 1.60103649 -2.11964519
v 0.00787218 1.60103649 -2.01631145
v -0.00803943 1.61499996 -2.0157838
v -0.00857141 1.60103649 -1.99987209
v -0.11785041 1.5822546 -2.10585963
v -0.10012117 1.59619229 -2.1063206
v -0.09967225 1.58226574 -2.12425715
v -0.11189461 1.58222897 -1.99987209
v -0.11044821 1.59619229 -2.0157838
v -0.12647783 1.58222714 -2.01620754
v 0.01645121 0 -0.14983635
v 0.00320622 0.27802305 -0.15075094
v 0.00320623 0.27802305 -0.0261906
v 0.01645121 0 -0.01644509
v -0.12621402 0.74642668 -0.02352314
v -0.13793606 1.13147474 -0.02832715
v -0.13793606 1.13147474 -0.13794861
v -0.12621402 0.74642668 -0.14275263
v -0.13054446 1.48792065 -0.03571891
v -0.13479273 1.60103634 -0.03147094
v -0.13479272 1.60103634 -0.13480461
v -0.13054446 1.48792065 -0.13055664
v -0.13337941 0 -0.16627464
v -0.13779346 0.2780231 -0.16718948
v -0.01324169 0.27802305 -0.16718948
v 3.24E-06 0 -0.16627464
v -0.01188766 1.13147474 -0.01188728
v -0.01927983 1.48792065 -0.0192788
v -0.11410089 1.48792065 -0.01927903
v -0.12149235 1.13147474 -0.01188728
v -0.15423761 0.2780231 -0.02618539
v -0.15423761 0.2780231 -0.15075117
v 0.00456397 1.13147474 -0.1379484
v -0.00282764 1.48792065 -0.13055641
v -0.00282763 1.48792065 -0.03572774
v 0.00456397 1.13147474 -0.02833418
v -0.12149235 1.13147474 -0.15438736
v -0.11410089 1.48792065 -0.14699584
v -0.01927428 1.48792065 -0.14699584
v -0.01188318 1.13147474 -0.15438736
v 0.02589369 0.74642676 -0.14275263
v 0.0258937 0.74642676 -0.02352903
v -0.10976988 0.74642676 -0.15919115
v 0.009446 0.74642676 -0.15919115
v 0.00944222 0.74642676 -0.00708349
v -0.10976988 0.74642676 -0.00708349
v -0.01324507 0.27802305 -0.00974551
v -0.13779346 0.2780231 -0.00974551
v -0.00044273 1.60103482 -0.13490857
v -0.00907017 1.60106213 -0.04525649
v -0.11834912 1.60103634 -0.15124403
v -0.01502593 1.60103634 -0.15124403
v 0 0 0
v -0.13337941 0 0
v -0.13479273 1.60103634 -0.03147094
v -0.13054446 1.48792065 -0.03571891
v -0.13479272 1.60103634 -0.13480461
v -0.14982331 0 -0.14983635
v -0.00044273 1.60103482 -0.13490857
v 0.01645121 0 -0.01644509
v 0.00320623 0.27802305 -0.0261906
v -0.13793606 1.13147474 -0.02832715
v -0.12621402 0.74642668 -0.02352314
v 0.00456397 1.13147474 -0.02833418
v -0.00282763 1.48792065 -0.03572774
v -0.00907017 1.60106213 -0.04525649
v 0.0258937 0.74642676 -0.02352903
v -0.15423761 0.2780231 -0.02618539
v -0.14982331 0 -0.01644011
v -0.14982331 0 -0.01644011
v -0.14337176 0 -2.00127971
v -0.12102564 0.42862388 -2.03337535
v -0.12102566 0.42862388 -2.14353511
v -0.14337181 0 -2.13467097
v 0.02458198 0.85536894 -2.13474574
v 0.00777384 1.20262189 -2.12029506
v 0.00777387 1.20262189 -2.01566142
v 0.02458203 0.85536894 -2.00121089
v 0.009716 1.50091031 -2.11992091
v 0.00787215 1.60103649 -2.11964519
v 0.00787218 1.60103649 -2.01631145
v 0.00971604 1.50091031 -2.01603587
v 0.00645887 0 -1.98484142
v 0.0036732 0.42862388 -2.01883739
v -0.10647924 0.42862388 -2.01883739
v -0.12692377 0 -1.98484142
v -0.11253968 1.20262189 -2.13598689
v -0.11216357 1.50091031 -2.13792964
v -0.00829634 1.50091031 -2.13792964
v -0.00792173 1.20262189 -2.13598689
v 0.01821621 0.42862388 -2.14353999
v 0.01821625 0.42862388 -2.03337535
v -0.12824276 1.20262189 -2.01566142
v -0.13018532 1.50091031 -2.01603587
v -0.13018533 1.50091031 -2.1199116
v -0.12824279 1.20262189 -2.1202885
v -0.00792167 1.20262189 -1.99997066
v -0.00829629 1.50091031 -1.99802821
v -0.11216961 1.50091031 -1.99802821
v -0.1125439 1.20262189 -1.99997066
v -0.1457756 0.85536886 -2.00121089
v -0.14577564 0.85536886 -2.13473887
v 0.00616493 0.85536894 -1.98280025
v -0.12735449 0.85536886 -1.98280025
v -0.12735031 0.85536886 -2.15315776
v 0.00616487 0.85536894 -2.15315776
v -0.10647629 0.42862388 -2.15807933
v 0.00367316 0.42862388 -2.15807933
v -0.12647783 1.58222714 -2.01620754
v -0.11785041 1.5822546 -2.10585963
v -0.00857141 1.60103649 -1.99987209
v -0.11189461 1.58222897 -1.99987209
v -0.12692059 0 -2.15111598
v 0.00645882 0 -2.15111598
v 0.00787215 1.60103649 -2.11964519
v 0.009716 1.50091031 -2.11992091
v 0.02290277 0 -2.00127971
v -0.11189461 1.58222897 -1.99987209
v -0.00857141 1.60103649 -1.99987209
v -0.14337181 0 -2.13467097
v -0.12102566 0.42862388 -2.14353511
v 0.00777384 1.20262189 -2.12029506
v 0.02458198 0.85536894 -2.13474574
v -0.12824279 1.20262189 -2.1202885
v -0.13018533 1.50091031 -2.1199116
v -0.11785041 1.5822546 -2.10585963
v -0.14577564 0.85536886 -2.13473887
v 0.01821621 0.42862388 -2.14353999
v 0.02290272 0 -2.13467601
v 0.02290272 0 -2.13467601
vn -0.29457 0.37342 0.87965
vn -0.29256 0.90067 0.32126
vn -0.86371 0.34827 0.3643
vn -0.87463 0.34333 -0.34226
vn -0.32217 0.89017 -0.32218
vn -0.34214 0.34334 -0.87468
vn 0.84245 0.4109 0.34847
vn 0.31193 0.89923 0.30672
vn 0.35646 0.41371 0.83773
vn 0.36201 0.34769 -0.8649
vn 0.32169 0.89954 -0.29553
vn 0.87936 0.37026 -0.2994
vn 0.24383 0.43514 -0.86672
vn 0.20801 0.92361 -0.32199
vn 0.85336 0.3795 -0.35742
vn 0.86428 0.37422 0.33611
vn 0.23989 0.91709 0.31842
vn 0.29709 0.40293 0.86567
vn -0.8228 0.46059 -0.33296
vn -0.40239 0.86294 -0.30565
vn -0.38114 0.43164 -0.81757
vn -0.38557 0.35428 0.85195
vn -0.4024 0.86838 0.28982
vn -0.86381 0.40948 0.29352
vn 0.92492 0.04282 -0.37775
vn 0.92117 0.00238 -0.38915
vn 0.92388 0.0053 0.38266
vn 0.92103 0.05738 0.38525
vn -0.92131 0.01496 0.38855
vn -0.92441 0.00181 0.3814
vn -0.9244 0.00181 -0.38141
vn -0.92224 0.01945 -0.38613
vn -0.92242 -0.00939 0.38607
vn -0.92528 -0.01104 -0.37912
vn -0.37956 -0.00907 -0.92512
vn -0.38944 0.01494 -0.92093
vn 0.37163 0.0063 -0.92836
vn 0.3926 0.01568 -0.91958
vn 0.37837 0.02966 0.92518
vn 0.39735 0.04705 0.91646
vn -0.35879 0.00842 0.93338
vn -0.38755 0.01332 0.92175
vn -0.9266 0.02564 0.37517
vn -0.92407 0.02269 -0.38155
vn 0.92205 0.04163 -0.38482
vn 0.93253 0.00638 -0.36103
vn 0.9169 0.04551 0.39651
vn 0.92207 0.04163 0.38477
vn -0.38753 0.01332 -0.92176
vn -0.37899 -0.01104 -0.92533
vn 0.38526 -0.00955 -0.92276
vn 0.37833 0.02966 -0.9252
vn 0.9258 0.00862 -0.37791
vn 0.92488 0.00444 0.38022
vn -0.37326 0.01919 -0.92753
vn 0.3934 0.01485 -0.91925
vn 0.39248 0.00447 0.91975
vn -0.37238 0.0085 0.92804
vn 0.37422 0.01362 0.92724
vn -0.39209 0.02229 0.91966
vn 0.38884 0.05077 0.91991
vn -0.37623 0.02649 0.92615
vn -0.92344 -0.01592 -0.3834
vn -0.92023 -0.00089 0.39138
vn -0.91657 0.07717 0.39236
vn -0.92837 -0.00286 0.37164
vn -0.92 -0.00272 -0.39191
vn -0.92663 0.04058 -0.37379
vn 0.92377 0.02709 -0.38198
vn 0.92428 0.02769 -0.3807
vn 0.92428 0.02769 0.38072
vn 0.91993 0.00844 0.392
vn 0.92144 0.00817 -0.38843
vn 0.92421 0.00625 0.38182
vn 0.3762 0.07569 0.92344
vn 0.38851 -0.00226 0.92144
vn -0.37946 -0.00265 0.9252
vn -0.38392 0.09119 0.91885
vn -0.38051 0.02837 -0.92434
vn -0.40113 0.08372 -0.91219
vn 0.36051 0.03048 -0.93226
vn 0.38074 0.02798 -0.92426
vn 0.92159 -0.00185 -0.38815
vn 0.92981 -0.00197 0.36803
vn -0.9242 0.02867 0.38084
vn -0.93062 0.032 0.36457
vn -0.91302 0.08472 -0.39903
vn -0.92422 0.02867 -0.38079
vn 0.38073 0.02798 0.92426
vn 0.38128 0.00677 0.92444
vn -0.38794 0.00983 0.92163
vn -0.38045 0.02837 0.92436
vn -0.92075 -0.00992 0.39004
vn -0.92484 0.00815 -0.38027
vn 0.38171 -0.00936 0.92424
vn -0.38615 -0.0169 0.92228
vn -0.39029 0.02645 -0.92031
vn 0.38553 0.03458 -0.92205
vn -0.37132 -0.00242 -0.9285
vn 0.38015 -0.00205 -0.92492
vn -0.39386 0.00385 -0.91916
vn 0.38536 -0.01249 -0.92268
vn 0.91704 0.03974 0.3968
vn 0.92601 0.00232 -0.37749
vt 0.63871 0.08963
vt 0.64118 0.0781
vt 0.62946 0.08022
vt 0.63357 0.01366
vt 0.64438 0.02042
vt 0.64628 0.00781
vt 0.70279 0.08095
vt 0.69037 0.07728
vt 0.69018 0.09045
vt 0.70801 0.01556
vt 0.70556 0.0281
vt 0.71781 0.02438
vt 0.52686 0.09002
vt 0.53056 0.07839
vt 0.51842 0.07899
vt 0.5305 0.01987
vt 0.54363 0.02241
vt 0.54074 0.00936
vt 0.59198 0.0937
vt 0.58031 0.08851
vt 0.57876 0.10117
vt 0.61296 0.03418
vt 0.60342 0.04195
vt 0.61478 0.04674
vt 0.18429 0.08736
vt 0.1779 0.24477
vt 0.24865 0.2465
vt 0.25943 0.0899
vt 0.01962 0.50886
vt 0.02222 0.72581
vt 0.08359 0.72517
vt 0.08729 0.50776
vt 0.03089 0.92681
vt 0.02657 0.98909
vt 0.08341 0.99136
vt 0.08467 0.92752
vt 0.09614 0.08785
vt 0.09478 0.24344
vt 0.16474 0.2445
vt 0.17127 0.0873
vt 0.69946 0.35427
vt 0.6934 0.15403
vt 0.63996 0.15363
vt 0.63777 0.3546
vt 0.01214 0.24414
vt 0.08181 0.24339
vt 0.17099 0.72514
vt 0.16602 0.92803
vt 0.21963 0.92858
vt 0.23281 0.72822
vt 0.09659 0.72504
vt 0.09792 0.92767
vt 0.15275 0.92789
vt 0.15788 0.72489
vt 0.18068 0.50894
vt 0.24742 0.51123
vt 0.10048 0.50774
vt 0.16771 0.50862
vt 0.71149 0.57015
vt 0.64478 0.57079
vt 0.70422 0.83456
vt 0.6336 0.83533
vt 0.16538 0.99208
vt 0.21505 0.99119
vt 0.09631 0.99163
vt 0.15316 0.99219
vt 0.71142 0.99212
vt 0.63683 0.99219
vt 0.62644 0.08967
vt 0.62684 0.1536
vt 0.6313 0.0202
vt 0.08304 0.08786
vt 0.71753 0.03095
vt 0.72457 0.99164
vt 0.71741 0.83429
vt 0.62474 0.35455
vt 0.63167 0.57083
vt 0.71256 0.35391
vt 0.70644 0.15351
vt 0.70467 0.08975
vt 0.72457 0.56996
vt 0.62049 0.83526
vt 0.62374 0.99199
vt 0.00781 0.0873
vt 0.32922 0.99156
vt 0.337 0.74278
vt 0.27266 0.74235
vt 0.25549 0.98423
vt 0.50303 0.50306
vt 0.48493 0.3077
vt 0.42545 0.30935
vt 0.42978 0.50214
vt 0.48519 0.14056
vt 0.48481 0.08434
vt 0.42682 0.08469
vt 0.42725 0.14063
vt 0.41557 0.99136
vt 0.4149 0.74308
vt 0.34895 0.74287
vt 0.34231 0.99219
vt 0.58705 0.31367
vt 0.58335 0.14722
vt 0.52648 0.14615
vt 0.52679 0.31446
vt 0.49064 0.74312
vt 0.42677 0.74309
vt 0.3397 0.30855
vt 0.34119 0.13983
vt 0.28312 0.1383
vt 0.28007 0.30608
vt 0.41286 0.30944
vt 0.41303 0.14056
vt 0.35541 0.14005
vt 0.35231 0.30885
vt 0.33198 0.50099
vt 0.25874 0.5012
vt 0.41556 0.50187
vt 0.34616 0.50097
vt 0.59641 0.50982
vt 0.5221 0.51083
vt 0.58865 0.74924
vt 0.52639 0.74985
vt 0.34328 0.09434
vt 0.29249 0.09206
vt 0.41378 0.08465
vt 0.3556 0.09456
vt 0.60163 0.99154
vt 0.52628 0.99198
vt 0.51462 0.08963
vt 0.51216 0.14594
vt 0.42865 0.99066
vt 0.6096 0.03071
vt 0.54931 0.01095
vt 0.61478 0.99143
vt 0.60028 0.74913
vt 0.51422 0.31432
vt 0.50751 0.51065
vt 0.59959 0.31324
vt 0.59749 0.14627
vt 0.5932 0.09961
vt 0.61105 0.50936
vt 0.51479 0.74998
vt 0.51315 0.99219
vt 0.50303 0.98486
usemtl mat1
f 29/29/15 30/30/16 31/31/17
f 32/32/18 33/33/19 34/34/20
f 35/35/21 36/36/22 37/37/23
f 38/38/24 39/39/25 40/40/26
f 41/41/27 42/42/28 43/43/29
f 44/44/30 45/45/31 46/46/32
f 47/47/33 48/48/34 49/49/35
f 50/50/36 51/51/37 52/52/38
f 39/39/25 33/33/19 30/30/16
f 39/39/25 30/30/16 36/36/22
f 53/53/39 54/54/40 55/55/41
f 53/53/39 55/55/41 56/56/42
f 57/57/43 58/58/44 59/59/45
f 57/57/43 59/59/45 60/60/46
f 61/61/47 62/62/17 63/63/18
f 61/61/47 63/63/18 64/64/48
f 65/65/49 66/66/50 67/67/51
f 65/65/49 67/67/51 68/68/52
f 69/69/53 70/70/54 71/71/55
f 69/69/53 71/71/55 72/72/56
f 73/73/57 57/57/43 60/60/46
f 73/73/57 60/60/46 74/74/58
f 75/75/59 76/76/60 77/77/61
f 75/75/59 77/77/61 78/78/62
f 58/58/44 61/61/47 64/64/48
f 58/58/44 64/64/48 59/59/45
f 79/79/63 80/80/64 81/81/65
f 79/79/63 81/81/65 82/82/66
f 83/83/67 75/75/59 78/78/62
f 83/83/67 78/78/62 84/84/68
f 85/85/69 79/79/63 82/82/66
f 85/85/69 82/82/66 86/86/70
f 87/87/71 69/69/53 72/72/56
f 87/87/71 72/72/56 88/88/72
f 66/66/50 85/85/69 86/86/70
f 66/66/50 86/86/70 67/67/51
f 54/54/40 83/83/67 84/84/68
f 54/54/40 84/84/68 55/55/41
f 89/89/73 87/87/71 88/88/72
f 89/89/73 88/88/72 90/90/74
f 70/70/54 37/37/23 29/29/15
f 70/70/54 29/29/15 71/71/55
f 76/76/60 91/91/26 92/92/21
f 76/76/60 92/92/21 77/77/61
f 80/80/64 93/93/20 94/94/24
f 80/80/64 94/94/24 81/81/65
f 95/95/75 89/89/73 90/90/74
f 95/95/75 90/90/74 96/96/76
f 71/71/55 29/29/15 97/97/17
f 71/71/55 97/97/17 98/98/47
f 30/30/16 33/33/19 99/99/18
f 30/30/16 99/99/18 31/31/17
f 66/66/50 65/65/49 100/100/77
f 66/66/50 100/100/77 74/74/58
f 33/33/19 39/39/25 38/38/24
f 33/33/19 38/38/24 34/34/20
f 54/54/40 53/53/39 68/68/52
f 54/54/40 68/68/52 67/67/51
f 39/39/25 36/36/22 35/35/21
f 39/39/25 35/35/21 101/101/26
f 89/89/73 95/95/75 102/102/42
f 89/89/73 102/102/42 103/103/41
f 36/36/22 30/30/16 29/29/15
f 36/36/22 29/29/15 37/37/23
f 88/88/72 72/72/56 104/104/44
f 88/88/72 104/104/44 105/105/43
f 80/80/64 79/79/63 59/59/45
f 80/80/64 59/59/45 64/64/48
f 76/76/60 75/75/59 82/82/66
f 76/76/60 82/82/66 81/81/65
f 70/70/54 69/69/53 106/106/62
f 70/70/54 106/106/62 107/107/61
f 72/72/56 71/71/55 98/98/47
f 72/72/56 98/98/47 104/104/44
f 93/93/20 80/80/64 64/64/48
f 93/93/20 64/64/48 63/63/18
f 91/91/26 76/76/60 81/81/65
f 91/91/26 81/81/65 94/94/24
f 37/37/23 70/70/54 107/107/61
f 37/37/23 107/107/61 108/108/21
f 79/79/63 85/85/69 60/60/46
f 79/79/63 60/60/46 59/59/45
f 75/75/59 83/83/67 86/86/70
f 75/75/59 86/86/70 82/82/66
f 69/69/53 87/87/71 109/109/68
f 69/69/53 109/109/68 106/106/62
f 90/90/74 88/88/72 105/105/43
f 90/90/74 105/105/43 110/110/57
f 85/85/69 66/66/50 74/74/58
f 85/85/69 74/74/58 60/60/46
f 83/83/67 54/54/40 67/67/51
f 83/83/67 67/67/51 86/86/70
f 87/87/71 89/89/73 103/103/41
f 87/87/71 103/103/41 109/109/68
f 96/96/76 90/90/74 110/110/57
f 96/96/76 110/110/57 111/111/78
f 112/112/78 73/73/57 74/74/58
f 112/112/78 74/74/58 100/100/77
f 51/51/37 45/45/31 42/42/28
f 51/51/37 42/42/28 48/48/34
f 113/113/79 114/114/80 115/115/81
f 113/113/79 115/115/81 116/116/82
f 117/117/83 118/118/84 119/119/85
f 117/117/83 119/119/85 120/120/86
f 121/121/87 122/122/29 123/123/30
f 121/121/87 123/123/30 124/124/88
f 125/125/89 126/126/90 127/127/91
f 125/125/89 127/127/91 128/128/92
f 129/129/93 130/130/94 131/131/95
f 129/129/93 131/131/95 132/132/96
f 133/133/97 117/117/83 120/120/86
f 133/133/97 120/120/86 134/134/98
f 135/135/99 136/136/100 137/137/101
f 135/135/99 137/137/101 138/138/102
f 118/118/84 121/121/87 124/124/88
f 118/118/84 124/124/88 119/119/85
f 139/139/103 140/140/104 141/141/105
f 139/139/103 141/141/105 142/142/106
f 143/143/107 135/135/99 138/138/102
f 143/143/107 138/138/102 144/144/108
f 145/145/109 139/139/103 142/142/106
f 145/145/109 142/142/106 146/146/110
f 147/147/111 129/129/93 132/132/96
f 147/147/111 132/132/96 148/148/112
f 126/126/90 145/145/109 146/146/110
f 126/126/90 146/146/110 127/127/91
f 114/114/80 143/143/107 144/144/108
f 114/114/80 144/144/108 115/115/81
f 149/149/113 147/147/111 148/148/112
f 149/149/113 148/148/112 150/150/114
f 130/130/94 49/49/35 41/41/27
f 130/130/94 41/41/27 131/131/95
f 136/136/100 151/151/38 152/152/33
f 136/136/100 152/152/33 137/137/101
f 140/140/104 153/153/32 154/154/36
f 140/140/104 154/154/36 141/141/105
f 155/155/115 149/149/113 150/150/114
f 155/155/115 150/150/114 156/156/116
f 131/131/95 41/41/27 157/157/29
f 131/131/95 157/157/29 158/158/87
f 42/42/28 45/45/31 44/44/30
f 42/42/28 44/44/30 43/43/29
f 126/126/90 125/125/89 159/159/117
f 126/126/90 159/159/117 134/134/98
f 45/45/31 51/51/37 160/160/36
f 45/45/31 160/160/36 161/161/32
f 114/114/80 113/113/79 128/128/92
f 114/114/80 128/128/92 127/127/91
f 51/51/37 48/48/34 47/47/33
f 51/51/37 47/47/33 52/52/38
f 149/149/113 155/155/115 162/162/82
f 149/149/113 162/162/82 163/163/81
f 48/48/34 42/42/28 41/41/27
f 48/48/34 41/41/27 49/49/35
f 148/148/112 132/132/96 164/164/84
f 148/148/112 164/164/84 165/165/83
f 140/140/104 139/139/103 119/119/85
f 140/140/104 119/119/85 124/124/88
f 136/136/100 135/135/99 142/142/106
f 136/136/100 142/142/106 141/141/105
f 130/130/94 129/129/93 166/166/102
f 130/130/94 166/166/102 167/167/101
f 132/132/96 131/131/95 158/158/87
f 132/132/96 158/158/87 164/164/84
f 153/153/32 140/140/104 124/124/88
f 153/153/32 124/124/88 123/123/30
f 151/151/38 136/136/100 141/141/105
f 151/151/38 141/141/105 154/154/36
f 49/49/35 130/130/94 167/167/101
f 49/49/35 167/167/101 168/168/33
f 139/139/103 145/145/109 120/120/86
f 139/139/103 120/120/86 119/119/85
f 135/135/99 143/143/107 146/146/110
f 135/135/99 146/146/110 142/142/106
f 129/129/93 147/147/111 169/169/108
f 129/129/93 169/169/108 166/166/102
f 150/150/114 148/148/112 165/165/83
f 150/150/114 165/165/83 170/170/97
f 145/145/109 126/126/90 134/134/98
f 145/145/109 134/134/98 120/120/86
f 143/143/107 114/114/80 127/127/91
f 143/143/107 127/127/91 146/146/110
f 147/147/111 149/149/113 163/163/81
f 147/147/111 163/163/81 169/169/108
f 156/156/116 150/150/114 170/170/97
f 156/156/116 170/170/97 171/171/118
f 172/172/118 133/133/97 134/134/98
f 172/172/118 134/134/98 159/159/117
# Vertices: 144, normals: 104, texture coordinates: 144, faces: 188

